<svg xmlns="http://www.w3.org/2000/svg" width="512" height="512" viewBox="0 0 512 512">
<g>
<path d="M 425.55 509.55 L 423.09 512.00 L 90.27 512.00 L 87.69 509.97 C86.28,508.86 84.83,507.05 84.49,505.96 C84.09,504.72 87.81,492.02 94.36,472.23 C100.13,454.78 123.83,383.12 147.01,313.00 C195.78,165.51 224.08,80.03 224.75,78.25 C225.10,77.32 223.22,77.00 217.36,77.00 C211.37,76.99 208.75,76.53 206.35,75.07 C203.10,73.09 201.15,68.24 202.61,65.77 C205.07,61.61 246.21,7.76 249.62,4.25 L 253.74 0.00 L 512.00 0.00 L 385.25 0.03 C298.63,0.05 259.05,0.38 260.25,1.08 C261.21,1.64 265.77,7.14 270.37,13.30 C274.97,19.46 285.77,33.71 294.37,44.97 C309.92,65.34 311.21,67.69 309.38,72.46 C308.24,75.42 303.43,77.00 295.55,77.00 C290.62,77.00 288.00,77.39 288.00,78.13 C288.00,78.75 306.49,135.11 329.08,203.38 C333.94,218.04 338.55,231.99 342.94,245.25 C427.66,501.18 428.22,502.88 428.03,504.49 C428.01,504.59 428.00,504.68 428.00,504.83 C428.00,506.07 426.90,508.20 425.55,509.55 ZM 97.40 510.11 C95.72,511.96 97.16,512.00 169.10,511.93 C209.47,511.90 241.60,511.49 240.50,511.04 C239.40,510.58 234.68,509.01 230.02,507.55 C214.44,502.67 203.93,496.10 192.02,483.82 C183.86,475.38 177.25,464.49 173.04,452.51 C157.17,407.30 181.48,357.26 227.13,341.18 C249.45,333.32 274.79,334.75 295.05,345.01 C317.83,356.55 334.50,377.14 341.19,402.00 C344.45,414.12 344.45,433.88 341.19,446.00 C333.12,475.97 310.80,499.36 282.00,508.00 C277.88,509.24 273.60,510.61 272.50,511.06 C271.40,511.50 303.75,511.90 344.38,511.93 C418.02,512.00 418.26,511.99 415.77,510.03 C414.40,508.95 412.79,506.82 412.20,505.28 C411.61,503.75 401.47,473.25 389.65,437.50 C363.53,358.48 293.89,147.93 278.89,102.63 C272.90,84.55 268.00,68.97 268.00,68.01 C268.00,67.05 268.93,65.08 270.07,63.63 C271.92,61.29 272.83,61.00 278.41,61.00 C281.85,61.00 284.92,60.75 285.23,60.44 C285.54,60.12 279.71,51.91 272.27,42.19 C264.83,32.46 258.53,23.94 258.27,23.25 C257.49,21.24 256.05,21.79 253.19,25.19 C248.27,31.02 227.02,59.49 227.01,60.25 C227.00,60.66 229.89,61.00 233.43,61.00 C239.18,61.00 240.07,61.28 241.93,63.63 C243.07,65.08 244.00,67.19 244.00,68.32 C244.00,69.45 236.62,92.68 227.60,119.94 C171.30,290.08 130.90,412.17 116.11,456.86 C106.76,485.11 98.34,509.07 97.40,510.11 ZM 239.50 494.05 C249.17,496.59 263.40,496.57 273.59,494.01 C305.85,485.88 328.00,457.38 328.00,424.00 C328.00,399.07 316.65,377.79 295.84,363.72 C274.12,349.02 244.47,348.16 220.33,361.52 C209.98,367.25 197.57,380.26 192.23,391.00 C185.00,405.53 182.60,419.97 184.96,434.73 C189.60,463.79 210.37,486.38 239.50,494.05 ZM 305.55 457.55 C304.20,458.90 302.03,460.00 300.74,460.00 C299.45,460.00 292.22,456.35 284.67,451.89 L 270.96 443.77 L 266.04 445.89 C254.26,450.96 240.84,446.08 234.70,434.50 C231.75,428.94 231.76,419.04 234.73,413.41 C237.06,408.97 242.62,403.57 245.93,402.52 C247.89,401.90 248.00,401.13 248.00,388.48 C248.00,374.10 248.77,370.88 252.66,369.11 C256.41,367.40 258.86,367.77 261.55,370.45 C263.92,372.82 264.00,373.39 264.00,386.75 L 264.00 400.59 L 269.22 404.05 C276.26,408.70 279.99,415.72 280.02,424.36 L 280.04 430.50 L 291.14 437.00 C297.25,440.58 303.54,444.69 305.12,446.15 C308.82,449.56 308.99,454.10 305.55,457.55 ZM 261.55 314.55 C260.00,316.09 257.95,317.00 256.00,317.00 C254.05,317.00 252.00,316.09 250.45,314.55 C248.12,312.21 248.00,311.50 248.00,300.00 C248.00,288.50 248.12,287.79 250.45,285.45 C252.00,283.91 254.05,283.00 256.00,283.00 C257.95,283.00 260.00,283.91 261.55,285.45 C263.88,287.79 264.00,288.50 264.00,300.00 C264.00,311.50 263.88,312.21 261.55,314.55 ZM 261.55 252.55 C258.24,255.85 254.53,255.68 250.92,252.08 C248.03,249.19 248.00,249.02 248.00,237.71 C248.00,227.65 248.25,225.95 250.07,223.63 C252.72,220.27 258.94,219.94 262.00,223.00 C263.79,224.79 264.00,226.33 264.00,237.55 C264.00,249.53 263.89,250.20 261.55,252.55 ZM 261.81 189.96 C258.73,192.83 253.55,192.64 250.45,189.55 C248.15,187.24 248.00,186.44 248.00,176.09 C248.00,164.15 248.91,160.82 252.66,159.11 C256.41,157.40 258.86,157.77 261.55,160.45 C263.89,162.80 264.00,163.47 264.00,175.42 C264.00,186.99 263.84,188.07 261.81,189.96 ZM 261.55 127.55 C257.73,131.36 251.34,130.23 249.11,125.35 C248.50,124.01 248.00,119.86 248.00,116.14 C248.00,110.03 248.27,109.11 250.80,106.69 C254.35,103.30 258.30,103.21 261.55,106.45 C263.75,108.66 264.00,109.74 264.00,117.00 C264.00,124.26 263.75,125.34 261.55,127.55 ZM 250.88 430.11 C256.23,434.43 264.00,430.90 264.00,424.14 C264.00,417.11 256.35,413.47 250.88,417.89 C249.10,419.34 248.55,420.79 248.55,424.00 C248.55,427.21 249.10,428.66 250.88,430.11 Z" fill="rgb(46,67,84)"/>
<path d="M 97.40 510.11 C98.34,509.07 106.76,485.11 116.11,456.86 C130.90,412.17 171.30,290.08 227.60,119.94 C236.62,92.68 244.00,69.45 244.00,68.32 C244.00,67.19 243.07,65.08 241.93,63.63 C240.07,61.28 239.18,61.00 233.43,61.00 C229.89,61.00 227.00,60.66 227.01,60.25 C227.02,59.49 248.27,31.02 253.19,25.19 C256.05,21.79 257.49,21.24 258.27,23.25 C258.53,23.94 264.83,32.46 272.27,42.19 C279.71,51.91 285.54,60.12 285.23,60.44 C284.92,60.75 281.85,61.00 278.41,61.00 C272.83,61.00 271.92,61.29 270.07,63.63 C268.93,65.08 268.00,67.05 268.00,68.01 C268.00,68.97 272.90,84.55 278.89,102.63 C293.89,147.93 363.53,358.48 389.65,437.50 C401.47,473.25 411.61,503.75 412.20,505.28 C412.79,506.82 414.40,508.95 415.77,510.03 C418.26,511.99 418.02,512.00 344.38,511.93 C303.75,511.90 271.40,511.50 272.50,511.06 C273.60,510.61 277.88,509.24 282.00,508.00 C310.80,499.36 333.12,475.97 341.19,446.00 C344.45,433.88 344.45,414.12 341.19,402.00 C334.50,377.14 317.83,356.55 295.05,345.01 C274.79,334.75 249.45,333.32 227.13,341.18 C181.48,357.26 157.17,407.30 173.04,452.51 C177.25,464.49 183.86,475.38 192.02,483.82 C203.93,496.10 214.44,502.67 230.02,507.55 C234.68,509.01 239.40,510.58 240.50,511.04 C241.60,511.49 209.47,511.90 169.10,511.93 C97.16,512.00 95.72,511.96 97.40,510.11 ZM 261.55 314.55 C263.88,312.21 264.00,311.50 264.00,300.00 C264.00,288.50 263.88,287.79 261.55,285.45 C260.00,283.91 257.95,283.00 256.00,283.00 C254.05,283.00 252.00,283.91 250.45,285.45 C248.12,287.79 248.00,288.50 248.00,300.00 C248.00,311.50 248.12,312.21 250.45,314.55 C252.00,316.09 254.05,317.00 256.00,317.00 C257.95,317.00 260.00,316.09 261.55,314.55 ZM 261.55 252.55 C263.89,250.20 264.00,249.53 264.00,237.55 C264.00,226.33 263.79,224.79 262.00,223.00 C258.94,219.94 252.72,220.27 250.07,223.63 C248.25,225.95 248.00,227.65 248.00,237.71 C248.00,249.02 248.03,249.19 250.92,252.08 C254.53,255.68 258.24,255.85 261.55,252.55 ZM 261.81 189.96 C263.84,188.07 264.00,186.99 264.00,175.42 C264.00,163.47 263.89,162.80 261.55,160.45 C258.86,157.77 256.41,157.40 252.66,159.11 C248.91,160.82 248.00,164.15 248.00,176.09 C248.00,186.44 248.15,187.24 250.45,189.55 C253.55,192.64 258.73,192.83 261.81,189.96 ZM 261.55 127.55 C263.75,125.34 264.00,124.26 264.00,117.00 C264.00,109.74 263.75,108.66 261.55,106.45 C258.30,103.21 254.35,103.30 250.80,106.69 C248.27,109.11 248.00,110.03 248.00,116.14 C248.00,119.86 248.50,124.01 249.11,125.35 C251.34,130.23 257.73,131.36 261.55,127.55 Z" fill="rgb(212,134,82)"/>
<path d="M 0.00 256.00 L 0.00 0.00 L 126.87 0.00 L 253.74 0.00 L 249.62 4.25 C246.21,7.76 205.07,61.61 202.61,65.77 C201.15,68.24 203.10,73.09 206.35,75.07 C208.75,76.53 211.37,76.99 217.36,77.00 C223.22,77.00 225.10,77.32 224.75,78.25 C224.08,80.03 195.78,165.51 147.01,313.00 C123.83,383.12 100.13,454.78 94.36,472.23 C87.81,492.02 84.09,504.72 84.49,505.96 C84.83,507.05 86.28,508.86 87.69,509.97 L 90.27 512.00 L 45.13 512.00 L 0.00 512.00 L 0.00 256.00 ZM 425.55 509.55 C426.90,508.20 428.00,506.07 428.00,504.83 C428.00,502.09 433.08,517.57 329.08,203.38 C306.49,135.11 288.00,78.75 288.00,78.13 C288.00,77.39 290.62,77.00 295.55,77.00 C303.43,77.00 308.24,75.42 309.38,72.46 C311.21,67.69 309.92,65.34 294.37,44.97 C285.77,33.71 274.97,19.46 270.37,13.30 C265.77,7.14 261.21,1.64 260.25,1.08 C259.05,0.38 298.63,0.05 385.25,0.03 L 512.00 0.00 L 512.00 256.00 L 512.00 512.00 L 467.55 512.00 L 423.09 512.00 L 425.55 509.55 ZM 239.50 494.05 C210.37,486.38 189.60,463.79 184.96,434.73 C182.60,419.97 185.00,405.53 192.23,391.00 C197.57,380.26 209.98,367.25 220.33,361.52 C244.47,348.16 274.12,349.02 295.84,363.72 C316.65,377.79 328.00,399.07 328.00,424.00 C328.00,457.38 305.85,485.88 273.59,494.01 C263.40,496.57 249.17,496.59 239.50,494.05 ZM 305.55 457.55 C308.99,454.10 308.82,449.56 305.12,446.15 C303.54,444.69 297.25,440.58 291.14,437.00 L 280.04 430.50 L 280.02 424.36 C279.99,415.72 276.26,408.70 269.22,404.05 L 264.00 400.59 L 264.00 386.75 C264.00,373.39 263.92,372.82 261.55,370.45 C258.86,367.77 256.41,367.40 252.66,369.11 C248.77,370.88 248.00,374.10 248.00,388.48 C248.00,401.13 247.89,401.90 245.93,402.52 C242.62,403.57 237.06,408.97 234.73,413.41 C231.76,419.04 231.75,428.94 234.70,434.50 C240.84,446.08 254.26,450.96 266.04,445.89 L 270.96 443.77 L 284.67 451.89 C292.22,456.35 299.45,460.00 300.74,460.00 C302.03,460.00 304.20,458.90 305.55,457.55 ZM 250.88 430.11 C249.10,428.66 248.55,427.21 248.55,424.00 C248.55,420.79 249.10,419.34 250.88,417.89 C256.35,413.47 264.00,417.11 264.00,424.14 C264.00,430.90 256.23,434.43 250.88,430.11 Z" fill="rgb(252,253,253)"/>
</g>
</svg>